<mxfile host="app.diagrams.net" modified="2020-08-27T13:25:46.687Z" agent="5.0 (X11)" etag="tG3XeAchi870m6sVHhPt" version="13.6.5" type="github">
  <diagram id="YwVPcnQrtgQc1rpSdtJS" name="Page-1">
    <mxGraphModel dx="1382" dy="831" grid="1" gridSize="10" guides="1" tooltips="1" connect="1" arrows="1" fold="1" page="1" pageScale="1" pageWidth="827" pageHeight="1169" math="0" shadow="0">
      <root>
        <mxCell id="0" />
        <mxCell id="1" parent="0" />
        <mxCell id="hwIMmI3QBjWFJ3wTzXhl-1" value="data.gouv.fr" style="rounded=0;whiteSpace=wrap;html=1;" vertex="1" parent="1">
          <mxGeometry x="230" y="240" width="120" height="60" as="geometry" />
        </mxCell>
        <UserObject label="CircleCI (https://circleci.com/gh/139bercy/decp-rama)" link="https://circleci.com/gh/139bercy/decp-rama" id="hwIMmI3QBjWFJ3wTzXhl-2">
          <mxCell style="rounded=0;whiteSpace=wrap;html=1;" vertex="1" parent="1">
            <mxGeometry x="170" y="310" width="190" height="60" as="geometry" />
          </mxCell>
        </UserObject>
      </root>
    </mxGraphModel>
  </diagram>
</mxfile>
